<svg width="191" height="36" viewBox="0 0 191 36" fill="none" xmlns="http://www.w3.org/2000/svg">
<path d="M105.132 19.8416C107.227 19.8416 108.798 20.2805 109.846 21.1584C110.893 22.085 111.417 23.4993 111.417 25.4013C111.417 27.3521 110.893 28.7664 109.846 29.6443C108.798 30.5709 107.227 31.0342 105.132 31.0342C102.988 31.0342 101.392 30.5709 100.344 29.6442C99.2468 28.7664 98.6981 27.3521 98.6981 25.4013C98.6981 21.6948 100.843 19.8416 105.132 19.8416Z" fill="url(#paint0_radial_116959_7209)"/>
<path d="M0 34.976V0.0466972H8.30894V34.976H0ZM1.53477 34.976V27.8843H19.4757V34.976H1.53477Z" fill="#001137"/>
<path d="M21.7337 34.976V0.0466972H30.2014V34.976H21.7337Z" fill="#001137"/>
<path d="M34.8363 34.976V0.0466972H43.1452V15.6061C44.3095 14.7593 45.368 13.7891 46.3206 12.6953C47.2732 11.6016 48.12 10.402 48.8609 9.09656C49.6019 7.79113 50.2193 6.39748 50.7132 4.91563C51.2072 3.3985 51.56 1.77552 51.7717 0.0466972H61.0862C60.7686 1.88137 60.2747 3.66312 59.6043 5.39194C58.934 7.08548 58.0872 8.67318 57.064 10.155C56.0408 11.6369 54.8765 12.9776 53.5711 14.1772C52.3009 15.3768 50.9073 16.3647 49.3902 17.1409V17.723C50.7662 17.723 52.001 17.8818 53.0948 18.1994C54.2238 18.4816 55.2117 18.9403 56.0585 19.5754C56.9053 20.2104 57.6109 21.0749 58.1754 22.1686C58.7399 23.2271 59.181 24.5149 59.4985 26.032L61.3508 34.976H52.4068L51.2954 28.3077C51.0131 26.5083 50.6427 25.1147 50.184 24.1268C49.7606 23.1036 49.1608 22.3803 48.3846 21.9569C47.6084 21.5335 46.5499 21.3218 45.2092 21.3218H43.1452V34.976H34.8363Z" fill="#001137"/>
<path d="M78.2285 35.8259C75.4391 35.8259 72.9767 35.4336 70.841 34.6491C68.749 33.821 66.9621 32.6661 65.4802 31.1842C64.042 29.6588 62.9524 27.8283 62.2115 25.6927C61.4705 23.557 61.1001 21.1599 61.1001 18.5013C61.1001 15.8427 61.4705 13.402 62.2115 11.1792C62.9524 8.91289 64.0202 6.95162 65.4149 5.29543C66.8095 3.59566 68.5311 2.28815 70.5796 1.37289C72.628 0.457631 74.9815 0 77.6401 0C80.1244 0 82.3254 0.414046 84.2431 1.24214C86.2043 2.07023 87.8387 3.31237 89.1463 4.96855C90.4974 6.58116 91.478 8.58601 92.0882 10.9831C92.6983 13.3366 92.9162 16.0606 92.7419 19.1551L66.1994 19.4166V14.7095L87.8387 14.5134L85.3545 17.1938C85.5724 14.7531 85.3763 12.7483 84.7661 11.1792C84.1559 9.56665 83.2188 8.36809 81.9549 7.58358C80.7346 6.75549 79.3181 6.34144 77.7055 6.34144C75.875 6.34144 74.2842 6.82087 72.9331 7.77971C71.582 8.73855 70.536 10.1114 69.795 11.8984C69.0977 13.6853 68.749 15.8427 68.749 18.3706C68.749 22.1624 69.5771 25.0171 71.2333 26.9348C72.9331 28.8525 75.2866 29.8113 78.2939 29.8113C79.6014 29.8113 80.7128 29.637 81.628 29.2883C82.5869 28.9396 83.3714 28.482 83.9816 27.9154C84.5917 27.3488 85.0712 26.6951 85.4198 25.9542C85.7685 25.2132 86.03 24.4505 86.2043 23.666L93.1995 25.0389C92.8945 26.6515 92.3715 28.1116 91.6305 29.4191C90.8896 30.7266 89.8872 31.8598 88.6233 32.8186C87.4029 33.7775 85.9428 34.5184 84.2431 35.0414C82.5433 35.5644 80.5384 35.8259 78.2285 35.8259Z" fill="#001137"/>
<path d="M118.031 34.978V0.0486846H130.256L136.501 25.8223H136.978L143.17 0.0486846H155.13V34.978H147.456L147.88 8.19886H147.245L140.259 34.978H132.85L125.917 8.19886H125.334L125.758 34.978H118.031Z" fill="#001137"/>
<path d="M176.029 35.8279C173.24 35.8279 170.777 35.4356 168.642 34.6511C166.549 33.823 164.763 32.6681 163.281 31.1862C161.842 29.6608 160.753 27.8302 160.012 25.6946C159.271 23.559 158.901 21.1619 158.901 18.5033C158.901 15.8447 159.271 13.404 160.012 11.1812C160.753 8.91488 161.821 6.95361 163.215 5.29742C164.61 3.59765 166.332 2.29014 168.38 1.37488C170.428 0.459618 172.782 0.00198732 175.441 0.00198732C177.925 0.00198732 180.126 0.416033 182.044 1.24413C184.005 2.07222 185.639 3.31436 186.947 4.97054C188.298 6.58314 189.278 8.588 189.889 10.9851C190.499 13.3386 190.717 16.0626 190.542 19.1571L164 19.4186V14.7115L185.639 14.5154L183.155 17.1958C183.373 14.7551 183.177 12.7503 182.567 11.1812C181.956 9.56863 181.019 8.37008 179.755 7.58557C178.535 6.75748 177.119 6.34343 175.506 6.34343C173.675 6.34343 172.085 6.82285 170.734 7.7817C169.382 8.74054 168.336 10.1134 167.596 11.9004C166.898 13.6873 166.549 15.8447 166.549 18.3726C166.549 22.1644 167.378 25.0191 169.034 26.9368C170.734 28.8545 173.087 29.8133 176.094 29.8133C177.402 29.8133 178.513 29.639 179.428 29.2903C180.387 28.9416 181.172 28.484 181.782 27.9174C182.392 27.3508 182.872 26.6971 183.22 25.9561C183.569 25.2152 183.83 24.4525 184.005 23.668L191 25.0409C190.695 26.6535 190.172 28.1135 189.431 29.4211C188.69 30.7286 187.688 31.8618 186.424 32.8206C185.203 33.7794 183.743 34.5204 182.044 35.0434C180.344 35.5664 178.339 35.8279 176.029 35.8279Z" fill="#001137"/>
<path d="M104.983 15.7716C102.888 15.7716 101.317 15.3327 100.269 14.4548C99.2219 13.5282 98.6982 12.1139 98.6982 10.2119C98.6982 8.26108 99.2219 6.84676 100.269 5.96891C101.317 5.04229 102.888 4.57898 104.983 4.57898C107.128 4.57898 108.724 5.04229 109.771 5.96891C110.868 6.84676 111.417 8.26108 111.417 10.2119C111.417 13.9183 109.272 15.7716 104.983 15.7716Z" fill="url(#paint1_radial_116959_7209)"/>
<defs>
<radialGradient id="paint0_radial_116959_7209" cx="0" cy="0" r="1" gradientUnits="userSpaceOnUse" gradientTransform="translate(105.058 18.8676) rotate(90) scale(13.3366 11.5185)">
<stop stop-color="#D8E4D6"/>
<stop offset="0.807692" stop-color="#0154F8"/>
<stop offset="0.966346" stop-color="#00297B"/>
</radialGradient>
<radialGradient id="paint1_radial_116959_7209" cx="0" cy="0" r="1" gradientUnits="userSpaceOnUse" gradientTransform="translate(105.058 16.7455) rotate(-90) scale(13.3366 11.5185)">
<stop offset="0.0961538" stop-color="#D8E4D6"/>
<stop offset="0.807692" stop-color="#EB7DC6"/>
<stop offset="0.966346" stop-color="#B14D8F"/>
</radialGradient>
</defs>
</svg>
